<?xml version="1.0" standalone="no"?>
<!DOCTYPE svg PUBLIC "-//W3C//DTD SVG 20010904//EN"
 "http://www.w3.org/TR/2001/REC-SVG-20010904/DTD/svg10.dtd">
<svg version="1.0" xmlns="http://www.w3.org/2000/svg"
 width="200.000000pt" height="200.000000pt" viewBox="0 0 200.000000 200.000000"
 preserveAspectRatio="xMidYMid meet">
<metadata>
Created by potrace 1.14, written by Peter Selinger 2001-2017
</metadata>
<g transform="translate(0.000000,200.000000) scale(0.100000,-0.100000)"
fill="#000000" stroke="none">
<path d="M1000 1966 c-69 -24 -160 -69 -160 -77 0 -5 -6 -9 -13 -9 -14 0 -187
-157 -187 -170 0 -4 37 -22 83 -39 45 -16 118 -44 162 -61 44 -17 92 -35 106
-40 15 -4 42 -15 60 -24 40 -18 155 -61 218 -82 25 -8 55 -21 67 -29 12 -8 32
-16 45 -18 13 -1 47 -13 74 -26 28 -13 73 -31 100 -41 28 -10 81 -30 119 -44
39 -14 72 -24 74 -22 8 8 -77 246 -116 326 -27 55 -75 132 -98 160 -60 71
-124 123 -196 161 -81 42 -85 43 -193 45 -70 2 -123 -1 -145 -10z"/>
<path d="M567 1642 c-15 -15 -27 -31 -27 -34 0 -3 21 -13 48 -23 26 -10 74
-28 107 -41 203 -78 253 -97 280 -108 17 -7 66 -27 110 -44 44 -17 141 -54
215 -83 309 -119 417 -161 460 -179 25 -10 46 -17 48 -15 1 1 -8 27 -21 56
-23 52 -54 79 -93 79 -8 0 -22 4 -32 9 -26 14 -84 38 -112 46 -14 4 -43 15
-65 25 -22 10 -89 36 -150 59 -60 23 -119 46 -130 51 -11 5 -47 19 -80 31 -33
12 -64 25 -70 29 -5 4 -23 10 -40 14 -16 4 -54 18 -83 32 -29 13 -57 24 -62
24 -5 0 -29 9 -52 19 -57 26 -205 81 -216 81 -4 0 -20 -13 -35 -28z"/>
<path d="M298 1372 c-91 -93 -173 -182 -181 -198 -9 -16 -33 -63 -53 -104 -37
-74 -37 -77 -38 -200 -1 -125 -1 -125 37 -204 30 -62 55 -96 118 -157 45 -44
87 -79 95 -79 8 0 14 -4 14 -9 0 -4 23 -19 50 -32 28 -13 50 -27 50 -30 0 -6
26 -16 60 -24 3 0 26 -9 51 -19 42 -16 50 -16 80 -3 51 22 197 77 206 77 4 0
31 12 58 25 28 14 56 25 63 25 6 0 29 9 49 20 21 11 44 20 51 20 7 0 34 10 60
21 25 12 69 29 97 39 48 17 258 99 320 125 17 7 73 29 125 49 52 20 114 45
138 56 23 11 48 20 55 20 6 0 31 9 54 20 40 18 42 21 33 45 -5 14 -12 37 -14
50 -13 73 -30 97 -85 121 -29 13 -57 24 -62 24 -5 0 -32 11 -61 24 -29 13 -64
27 -78 31 -14 4 -43 15 -65 25 -71 31 -190 75 -190 71 0 -2 -20 6 -44 19 -25
12 -67 30 -95 40 -28 10 -82 30 -121 45 -38 15 -88 34 -110 41 -22 8 -65 25
-95 38 -82 36 -341 136 -386 150 -17 5 -50 -23 -186 -162z"/>
<path d="M1870 734 c-19 -9 -64 -26 -100 -39 -36 -13 -94 -34 -130 -48 -165
-63 -240 -91 -305 -114 -38 -14 -74 -29 -80 -33 -5 -4 -26 -11 -45 -15 -19 -4
-46 -13 -60 -21 -14 -7 -52 -23 -85 -35 -91 -32 -152 -55 -245 -89 -47 -18
-107 -40 -135 -50 l-50 -17 39 -17 c21 -9 48 -18 60 -20 11 -3 89 -28 171 -56
267 -90 300 -101 323 -106 12 -2 45 -13 72 -24 27 -11 75 -23 107 -27 70 -9
223 -10 279 -1 94 15 211 103 252 190 35 74 42 119 39 258 -3 110 -8 148 -28
207 -13 40 -28 73 -34 73 -5 -1 -26 -8 -45 -16z"/>
</g>
</svg>
